<svg width="121" height="125" viewBox="0 0 121 125" fill="none" xmlns="http://www.w3.org/2000/svg">
<g id="Logo">
<path id="Vector" d="M41.722 0C40.4889 0.00140769 39.4896 1.00069 39.4883 2.23378V41.3774C39.4896 42.6105 40.4889 43.6098 41.722 43.6112H97.0894C98.3225 43.6098 99.3218 42.6105 99.3231 41.3774V2.23378C99.3218 1.00069 98.3225 0.00140406 97.0894 0H41.722Z" fill="#E6E6E6"/>
<path id="Vector_2" d="M77.1775 41.7058H43.2869C41.9598 41.7043 40.8843 40.6288 40.8828 39.3016V3.7987C40.8843 2.47156 41.9598 1.39603 43.2869 1.39453H95.5257C96.8528 1.39602 97.9284 2.47153 97.9298 3.7987V20.9534C97.9169 32.4092 88.6333 41.6928 77.1775 41.7058V41.7058Z" fill="white"/>
<path id="Vector_3" d="M63.9008 11.2198H55.8472C55.4225 11.2198 55.0781 10.8755 55.0781 10.4507C55.0781 10.026 55.4225 9.68164 55.8472 9.68164H63.9008C64.3255 9.68164 64.6698 10.026 64.6698 10.4507C64.6698 10.8755 64.3255 11.2198 63.9008 11.2198H63.9008Z" fill="#6075E1"/>
<path id="Vector_4" d="M81.9542 14.3653H55.8472C55.4225 14.3653 55.0781 14.021 55.0781 13.5962C55.0781 13.1715 55.4225 12.8271 55.8472 12.8271H81.9542C82.3789 12.8271 82.7233 13.1715 82.7233 13.5962C82.7233 14.021 82.3789 14.3653 81.9542 14.3653Z" fill="#E6E6E6"/>
<path id="Vector_5" d="M81.9542 17.9757H55.8472C55.4225 17.9757 55.0781 17.6313 55.0781 17.2066C55.0781 16.7818 55.4225 16.4375 55.8472 16.4375H81.9542C82.3789 16.4375 82.7233 16.7818 82.7233 17.2066C82.7233 17.6313 82.3789 17.9757 81.9542 17.9757Z" fill="#E6E6E6"/>
<path id="Vector_6" d="M81.9542 21.587H55.8472C55.4225 21.587 55.0781 21.2427 55.0781 20.8179C55.0781 20.3932 55.4225 20.0488 55.8472 20.0488H81.9542C82.3789 20.0488 82.7233 20.3932 82.7233 20.8179C82.7233 21.2427 82.3789 21.587 81.9542 21.587Z" fill="#E6E6E6"/>
<path id="Vector_7" d="M81.9542 25.1983H55.8472C55.4225 25.1983 55.0781 24.854 55.0781 24.4292C55.0781 24.0045 55.4225 23.6602 55.8472 23.6602H81.9542C82.3789 23.6602 82.7233 24.0045 82.7233 24.4292C82.7233 24.854 82.3789 25.1983 81.9542 25.1983Z" fill="#E6E6E6"/>
<path id="Vector_8" d="M38.5573 17.5078C37.1833 17.5094 36.0699 18.6229 36.0684 19.9969V63.614C36.0699 64.988 37.1833 66.1015 38.5573 66.103H100.252C101.626 66.1015 102.74 64.988 102.741 63.614V19.9969C102.74 18.6229 101.626 17.5094 100.252 17.5078H38.5573Z" fill="#E6E6E6"/>
<path id="Vector_9" d="M78.0636 63.9797H40.2999C38.8211 63.978 37.6227 62.7796 37.6211 61.3008V21.7405C37.6227 20.2616 38.8211 19.0632 40.2999 19.0615H98.5087C99.9876 19.0632 101.186 20.2616 101.188 21.7405V40.8556C101.173 53.6207 90.8287 63.9652 78.0636 63.9797V63.9797Z" fill="white"/>
<path id="Vector_10" d="M63.2724 30.0099H54.2984C53.8251 30.0099 53.4414 29.6262 53.4414 29.1529C53.4414 28.6796 53.8251 28.2959 54.2984 28.2959H63.2723C63.7456 28.2959 64.1293 28.6796 64.1293 29.1529C64.1293 29.6262 63.7456 30.0099 63.2723 30.0099H63.2724Z" fill="#6075E1"/>
<path id="Vector_11" d="M83.389 33.5147H54.2984C53.8251 33.5147 53.4414 33.1311 53.4414 32.6578C53.4414 32.1845 53.8251 31.8008 54.2984 31.8008H83.389C83.8622 31.8008 84.2459 32.1845 84.2459 32.6578C84.2459 33.1311 83.8622 33.5147 83.389 33.5147Z" fill="#E6E6E6"/>
<path id="Vector_12" d="M83.389 37.5382H54.2984C53.8251 37.5382 53.4414 37.1545 53.4414 36.6812C53.4414 36.2079 53.8251 35.8242 54.2984 35.8242H83.389C83.8622 35.8242 84.2459 36.2079 84.2459 36.6812C84.2459 37.1545 83.8622 37.5382 83.389 37.5382Z" fill="#E6E6E6"/>
<path id="Vector_13" d="M83.389 41.5616H54.2984C53.8251 41.5616 53.4414 41.1779 53.4414 40.7046C53.4414 40.2313 53.8251 39.8477 54.2984 39.8477H83.389C83.8622 39.8477 84.2459 40.2313 84.2459 40.7046C84.2459 41.1779 83.8622 41.5616 83.389 41.5616Z" fill="#E6E6E6"/>
<path id="Vector_14" d="M83.389 45.585H54.2984C53.8251 45.585 53.4414 45.2014 53.4414 44.7281C53.4414 44.2548 53.8251 43.8711 54.2984 43.8711H83.389C83.8622 43.8711 84.2459 44.2548 84.2459 44.7281C84.2459 45.2014 83.8622 45.585 83.389 45.585Z" fill="#E6E6E6"/>
<path id="Vector_15" d="M106.713 47.9597H94.5348C92.113 47.9597 90.1496 49.923 90.1496 52.3449C90.1496 54.7668 88.1863 56.7301 85.7644 56.7301H45.1637C42.7418 56.7301 40.7785 54.7668 40.7785 52.3449V52.3449L39.9757 47.8995L40.0279 47.9597L39.9757 47.8995L32.6162 38.517C32.1276 37.884 31.3707 37.5163 30.5711 37.5235H16.7693C15.3346 37.5253 14.172 38.6879 14.1703 40.1226L13.8853 47.8995H8.66746C4.05854 47.8995 0.322266 51.6358 0.322266 56.2447V110.597C0.322266 114.687 3.6379 118.002 7.72794 118.002H106.713C110.801 117.997 114.113 114.684 114.117 110.597V55.3634C114.117 51.2745 110.802 47.9597 106.713 47.9597H106.713Z" fill="#E6E6E6"/>
<path id="Vector_16" d="M39.9794 47.6993H14.1699V39.9224C14.1716 38.4877 15.3343 37.3251 16.7689 37.3233H30.5708C31.3704 37.3161 32.1273 37.6838 32.6159 38.3168L39.9794 47.6993V47.6993Z" fill="#CCCCCC"/>
<g id="Group 34824">
<path id="Vector_17" d="M53.1936 112.022H10.0985C7.25811 112.019 4.95633 109.717 4.95312 106.876V95.0907C4.95633 92.2503 7.25811 89.9485 10.0985 89.9453H61.8227C64.6631 89.9485 66.9649 92.2503 66.9681 95.0907V98.2473C66.9594 105.851 60.7975 112.013 53.1936 112.022Z" fill="white"/>
<path id="Vector_18" d="M22.5037 98.8353H11.8668C10.4259 98.8353 9.25781 97.6672 9.25781 96.2262C9.25781 94.7853 10.4259 93.6172 11.8668 93.6172H22.5037C23.9446 93.6153 25.1143 94.7819 25.1161 96.2229C25.118 97.6638 23.9514 98.8334 22.5104 98.8353H22.5037H22.5037Z" fill="#6075E1"/>
<path id="Vector_19" d="M58.6289 107.064H11.8668C10.4259 107.064 9.25781 105.896 9.25781 104.455C9.25781 103.014 10.4259 101.846 11.8668 101.846H58.6289C60.0699 101.844 61.2395 103.01 61.2413 104.451C61.2432 105.892 60.0766 107.062 58.6357 107.064H58.629L58.6289 107.064Z" fill="#6075E1"/>
</g>
<path id="Vector_20" d="M110.099 124.508C104.257 124.508 99.5215 119.772 99.5215 113.931C99.5215 108.089 104.257 103.354 110.099 103.354C115.94 103.354 120.676 108.089 120.676 113.931C120.676 119.772 115.94 124.508 110.099 124.508Z" fill="#6075E1"/>
<path id="Vector_21" d="M114.273 112.887H111.143V109.757C111.143 109.181 110.676 108.714 110.1 108.714C109.523 108.714 109.056 109.181 109.056 109.757V112.887H105.926C105.35 112.887 104.883 113.355 104.883 113.931C104.883 114.507 105.35 114.974 105.926 114.974H109.056V118.104C109.056 118.681 109.523 119.148 110.1 119.148C110.676 119.148 111.143 118.681 111.143 118.104V114.974H114.273C114.849 114.974 115.317 114.507 115.317 113.931C115.317 113.355 114.849 112.887 114.273 112.887Z" fill="white"/>
</g>
</svg>
