<svg width="32" height="42" viewBox="0 0 32 42" fill="none" xmlns="http://www.w3.org/2000/svg">
<g id="Iconly/Light/Pdf">
<path id="Vector" d="M31.4785 13.9617L18.3704 0.98782C18.0373 0.657743 17.5854 0.47209 17.1141 0.47168H6.51852C4.7897 0.47168 3.13169 1.15142 1.90923 2.36135C0.68677 3.57129 0 5.21232 0 6.92343V35.0765C0 36.7877 0.68677 38.4287 1.90923 39.6386C3.13169 40.8486 4.7897 41.5283 6.51852 41.5283H25.4815C27.2103 41.5283 28.8683 40.8486 30.0908 39.6386C31.3132 38.4287 32 36.7877 32 35.0765V15.1348C31.9813 14.6928 31.7952 14.2739 31.4785 13.9617ZM18.963 5.16823L27.2549 13.3752H18.963V5.16823ZM25.4815 39.3186H6.51852C5.73269 39.3186 3.98719 37.918 3.43152 37.368C2.87586 36.8181 2.23256 35.8543 2.23256 35.0765V6.92343C2.23256 6.14566 2.87586 4.52712 3.43152 3.97715C3.98719 3.42718 5.73269 2.68137 6.51852 2.68137H16.7304V13.8253C16.7365 14.2901 16.9909 14.7788 17.323 15.1075C17.6551 15.4361 18.0386 15.5788 18.5082 15.5849H29.7674V35.0765C29.7674 35.8543 29.1241 37.4728 28.5685 38.0228C28.0128 38.5727 26.2673 39.3186 25.4815 39.3186Z" fill="white"/>
<path id="Vector_2" d="M19.5314 27.6867C18.0739 26.7815 16.977 25.4057 16.4263 23.7922C16.9366 22.2827 17.0907 20.6776 16.8766 19.1C16.8083 18.7026 16.6124 18.3375 16.3181 18.0588C16.0238 17.7801 15.6466 17.6026 15.2424 17.5526C14.8382 17.5026 14.4285 17.5827 14.074 17.7811C13.7194 17.9795 13.4388 18.2857 13.2737 18.6543C13.0038 20.5509 13.2073 22.484 13.8663 24.2849C12.966 26.3665 11.9613 28.4023 10.8559 30.3847C9.17293 31.3232 6.87367 32.7308 6.51811 34.3496C6.23367 35.6634 8.72256 39.0418 12.9655 31.722C14.8522 31.0288 16.7846 30.4644 18.7492 30.0328C20.2015 30.8546 21.8215 31.3437 23.49 31.4639C23.8731 31.4737 24.2506 31.3713 24.575 31.1694C24.8994 30.9675 25.1563 30.6752 25.3133 30.3292C25.4704 29.9832 25.5206 29.599 25.4577 29.2248C25.3947 28.8507 25.2214 28.5033 24.9596 28.2263C23.964 27.2175 21.0011 27.499 19.5314 27.6867ZM8.20108 34.725C8.86535 33.5999 9.7426 32.6121 10.7848 31.8158C9.17293 34.3496 8.20108 34.7954 8.20108 34.7484V34.725ZM15.1226 18.7481C15.7389 18.7481 15.6914 21.4461 15.2648 22.1734C14.9434 21.067 14.8946 19.9005 15.1226 18.7716V18.7481ZM13.0603 30.197C13.8634 28.7468 14.5605 27.2414 15.1463 25.6925C15.7742 26.8491 16.6475 27.8575 17.7063 28.6486C16.1159 29.0429 14.5618 29.5687 13.0603 30.2205V30.197ZM24.2011 29.7747C24.2011 29.7747 23.7744 30.2909 21.0485 29.1178C24.0114 28.9301 24.5092 29.6105 24.2011 29.7982V29.7747Z" fill="#F91D0A" fill-opacity="0.7"/>
</g>
</svg>
